<svg width="33" height="35" viewBox="0 0 33 35" fill="none" xmlns="http://www.w3.org/2000/svg">
<path fill-rule="evenodd" clip-rule="evenodd" d="M0 17.8809L0.00167605 17.7055L0.0051323 17.5301L0.0103776 17.3547L0.0174032 17.1792L0.0262263 17.0038L0.0368296 16.8284L0.0492308 16.653L0.0634121 16.4777L0.079391 16.3024L0.097159 16.1271L0.116716 15.9521L0.138053 15.7771L0.161188 15.6023L0.186111 15.4276L0.212815 15.2532L0.241308 15.079L0.27159 14.9048L0.303643 14.7311L0.337486 14.5575L0.373108 14.3841L0.410511 14.2111L0.449677 14.0383L0.490632 13.866L0.533341 13.6938L0.57783 13.5222L0.624073 13.3507L0.672088 13.1798L0.721857 13.0092L0.773381 12.8391L0.82665 12.6695L0.881673 12.5002L0.938442 12.3315L0.996947 12.1632L1.05718 11.9955L1.11915 11.8282L1.18284 11.6616L1.24826 11.4955L1.31539 11.3299L1.38423 11.1651L1.45477 11.0008L1.52701 10.837L1.60095 10.674L1.67657 10.5117L1.75388 10.35L1.83286 10.189L1.91351 10.0288L1.99582 9.8693L2.07979 9.71049L2.1654 9.55255L2.25265 9.39531L2.34154 9.23886L2.43205 9.08329L2.52418 8.9285L2.61792 8.77459L2.71326 8.62155L2.81019 8.46939L2.90872 8.31819L3.00882 8.16778L3.11048 8.01841L3.21371 7.86993L3.31849 7.7224L3.4248 7.57593L3.53265 7.43033L3.64202 7.28586L3.75291 7.14236L3.86529 6.99986L3.97917 6.85846L4.09453 6.71813L4.21136 6.57888L4.32965 6.44073L4.4494 6.30369L4.57058 6.1678L4.69319 6.03304L4.81723 5.89944L4.94266 5.76702L5.06949 5.63579L5.19771 5.50575L5.32729 5.37694L5.45824 5.24935L5.59054 5.12301L5.72417 4.99794L5.85912 4.87413L5.99539 4.75161L6.13295 4.63039L6.27181 4.51047L6.41193 4.39189L6.5533 4.27465L6.69593 4.15875L6.8398 4.04422L6.98488 3.93107L7.13113 3.81931L7.27867 3.70895L7.42734 3.60001L7.57715 3.4925L7.72808 3.38643L7.88023 3.2818L8.03342 3.17863L8.18773 3.07695L8.34318 2.97674L8.49976 2.87804L8.65729 2.78085L8.81595 2.68516L8.97556 2.59102L9.13622 2.49842L9.29792 2.40737L9.46058 2.31788L9.62419 2.22996L9.78875 2.14364L9.95428 2.05889L10.1208 1.97576L10.2881 1.89424L10.4564 1.81433L10.6255 1.73606L10.7955 1.65944L10.9663 1.58446L11.138 1.51114L11.3105 1.4395L11.4837 1.36952L11.6578 1.30123L11.8326 1.23464L12.0081 1.16974L12.1844 1.10657L12.3614 1.0451L12.539 0.985355L12.7173 0.927351L12.8963 0.87108L13.076 0.816559L13.2563 0.763796L13.4371 0.712793L13.6186 0.663547L13.8006 0.616079L13.9831 0.570395L14.1662 0.526505L14.3499 0.484391L14.534 0.444089L14.7185 0.40558L14.9036 0.368883L15.0891 0.334005L15.275 0.300939L15.4614 0.269701L15.6481 0.240293L15.8351 0.212712L16.0225 0.186979L16.2103 0.163082L16.3984 0.141033L16.5868 0.12082L16.7754 0.10248L16.9643 0.0859862L17.1534 0.0713476L17.3427 0.0585813L18.3609 0L18.4189 4.94259L18.4522 4.9422L18.5928 4.942L18.7334 4.94319L18.874 4.94577L19.0148 4.94975L19.1555 4.95513L19.2962 4.96188L19.437 4.97004L19.5778 4.97961L19.7185 4.99055L19.8592 5.00291L19.9998 5.01666L20.1404 5.03182L20.2808 5.04837L20.4213 5.06631L20.5615 5.08566L20.7017 5.10639L20.8417 5.12854L20.9816 5.15208L21.1212 5.17701L21.2608 5.20334L21.4001 5.23106L21.5391 5.26018L21.678 5.29068L21.8166 5.32257L21.955 5.35585L22.0932 5.39052L22.231 5.42658L22.3684 5.46401L22.5057 5.50282L22.6426 5.54301L22.7791 5.58457L22.9153 5.62751L23.0511 5.67182L23.1866 5.71749L23.3216 5.76453L23.4562 5.81292L23.5905 5.86267L23.7242 5.91378L23.8575 5.96622L23.9904 6.02003L24.1227 6.07517L24.2546 6.13164L24.386 6.18945L24.5168 6.24859L24.6471 6.30906L24.7768 6.37083L24.9061 6.43393L25.0347 6.49834L25.1627 6.56405L25.2901 6.63106L25.4169 6.69936L25.543 6.76896L25.6685 6.83983L25.7934 6.91198L25.9176 6.98541L26.0411 7.06011L26.1639 7.13606L26.286 7.21324L26.4073 7.29172L26.5279 7.37135L26.6478 7.45229L26.7669 7.53445L26.8852 7.61775L27.0028 7.70236L27.1195 7.78811L27.2353 7.87509L27.3505 7.96329L27.4647 8.05263L27.5781 8.14319L27.6906 8.2348L27.8022 8.32764L27.913 8.4217L28.0228 8.51681L28.1318 8.61306L28.2398 8.71045L28.3468 8.80898L28.4529 8.90864L28.5581 9.00935L28.6623 9.11111L28.7655 9.21401L28.8677 9.31796L28.9689 9.42305L29.0691 9.5291L29.1682 9.6362L29.2663 9.74435L29.3633 9.85355L29.4593 9.96371L29.5542 10.0749L29.648 10.1871L29.7407 10.3002L29.8323 10.4144L29.9228 10.5295L30.0122 10.6455L30.1004 10.7625L30.1875 10.8805L30.2734 10.9993L30.3582 11.1191L30.4417 11.2397L30.5241 11.3612L30.6053 11.4836L30.6853 11.6069L30.7641 11.731L30.8415 11.856L30.9179 11.9817L30.9929 12.1083L31.0667 12.2357L31.1392 12.3639L31.2105 12.4929L31.2805 12.6227L31.3492 12.7531L31.4166 12.8844L31.4827 13.0163L31.5475 13.149L31.611 13.2824L31.6731 13.4165L31.7339 13.5512L31.7934 13.6867L31.8515 13.8227L31.9082 13.9595L31.9636 14.0968L32.0176 14.2348L32.0703 14.3733L32.1215 14.5125L32.1713 14.6521L32.2198 14.7925L32.2669 14.9333L32.3126 15.0747L32.3568 15.2165L32.3996 15.3589L32.4409 15.5018L32.4809 15.6451L32.5193 15.7889L32.5564 15.9332L32.5919 16.0779L32.6261 16.223L32.6588 16.3685L32.69 16.5145L32.7198 16.6607L32.748 16.8074L32.7747 16.9544L32.8001 17.1018L32.8239 17.2494L32.8462 17.3974L32.867 17.5457L32.8863 17.6942L32.9041 17.843L32.9205 17.992L32.9352 18.1413L32.9485 18.2907L32.9603 18.4405L32.9706 18.5903L32.9792 18.7404L32.9865 18.8905L32.9922 19.041L32.9963 19.1914L32.999 19.342L33 19.4926L32.9996 19.6434L32.9976 19.7943L32.994 19.9452L32.989 20.096L32.9824 20.247L32.9743 20.3979L32.9646 20.5489L32.9534 20.6998L32.9406 20.8506L32.9263 21.0015L32.9105 21.1523L32.893 21.3028L32.8741 21.4534L32.8537 21.6038L32.8316 21.7542L32.8081 21.9043L32.783 22.0543L32.7563 22.2041L32.7282 22.3537L32.6985 22.5032L32.6672 22.6523L32.6344 22.8013L32.6001 22.95L32.5643 23.0984L32.5269 23.2466L32.488 23.3944L32.4476 23.5419L32.4057 23.6891L32.3622 23.8359L32.3172 23.9824L32.2707 24.1285L32.2228 24.2743L32.1733 24.4195L32.1222 24.5644L32.0697 24.7089L32.0157 24.8528L31.9602 24.9963L31.9033 25.1394L31.8448 25.2819L31.7849 25.4239L31.7235 25.5655L31.6606 25.7064L31.5963 25.8468L31.5305 25.9866L31.4632 26.1258L31.3945 26.2645L31.3244 26.4025L31.2527 26.54L31.1798 26.6767L31.1053 26.8128L31.0295 26.9482L30.9522 27.0829L30.8735 27.217L30.7934 27.3502L30.712 27.4829L30.629 27.6147L30.5448 27.7457L30.4593 27.876L30.3722 28.0055L30.2839 28.1342L30.1942 28.2621L30.1032 28.3892L30.0108 28.5155L29.9171 28.6408L29.8221 28.7654L29.7258 28.8889L29.6282 29.0117L29.5293 29.1335L29.4291 29.2543L29.3275 29.3743L29.2248 29.4933L29.1208 29.6113L29.0155 29.7284L28.909 29.8445L28.8014 29.9596L28.6924 30.0737L28.5823 30.1866L28.4708 30.2986L28.3583 30.4096L28.2446 30.5195L28.1297 30.6283L28.0137 30.736L27.8965 30.8427L27.7781 30.9481L27.6587 31.0525L27.5381 31.1559L27.4164 31.258L27.2936 31.3589L27.1698 31.4587L27.0448 31.5573L26.9188 31.6547L26.7917 31.7509L26.6637 31.8459L26.5346 31.9397L26.4044 32.0322L26.2733 32.1235L26.1412 32.2136L26.0082 32.3023L25.8741 32.3898L25.7391 32.4761L25.6032 32.5609L25.4664 32.6446L25.3285 32.7268L25.1899 32.8079L25.0504 32.8875L24.9099 32.9657L24.7687 33.0427L24.6265 33.1182L24.4836 33.1924L24.3398 33.2653L24.1952 33.3367L24.0498 33.4067L23.9036 33.4754L23.7567 33.5426L23.6091 33.6084L23.4607 33.6727L23.3115 33.7356L23.1617 33.7971L23.0112 33.8572L22.8601 33.9157L22.7082 33.9728L22.5557 34.0284L22.4025 34.0826L22.2488 34.1351L22.0945 34.1863L21.9394 34.236L21.7839 34.2841L21.6279 34.3307L21.4713 34.3758L21.3141 34.4193L21.1565 34.4614L20.9982 34.5019L20.8397 34.5408L20.6806 34.5783L20.521 34.614L20.361 34.6483L20.2006 34.6811L20.0398 34.7122L19.8786 34.7418L19.7171 34.7697L19.5551 34.7961L19.3929 34.821L19.2302 34.8442L19.0674 34.8658L18.9042 34.8858L18.7407 34.9042L18.577 34.921L18.413 34.9362L18.2489 34.9498L18.0845 34.9618L17.92 34.9721L17.7551 34.9808L17.5902 34.9879L17.4252 34.9934L17.26 34.9972L17.0947 34.9994L16.9293 35L16.7638 34.999L16.5983 34.9962L16.4327 34.9919L16.2671 34.9859L16.1015 34.9783L15.9359 34.9691L15.7704 34.9582L15.6047 34.9457L15.4393 34.9315L15.2739 34.9156L15.1085 34.8982L14.9434 34.8792L14.7783 34.8584L14.6133 34.836L14.4485 34.812L14.2839 34.7863L14.1195 34.759L13.9553 34.7302L13.7912 34.6995L13.6275 34.6673L13.464 34.6336L13.3008 34.598L13.1378 34.5609L12.9753 34.5222L12.8129 34.4819L12.651 34.4399L12.4894 34.3963L12.3282 34.3512L12.1674 34.3044L12.0069 34.256L11.8469 34.2059L11.6874 34.1543L11.5283 34.1011L11.3696 34.0462L11.2115 33.9898L11.0539 33.9319L10.8968 33.8723L10.7402 33.8111L10.5842 33.7484L10.4288 33.6841L10.2739 33.6182L10.1197 33.5508L9.96609 33.4819L9.81307 33.4114L9.66075 33.3393L9.50912 33.2657L9.35819 33.1905L9.20787 33.1138L9.05833 33.0357L8.90956 32.956L8.76141 32.8749L8.61413 32.7922L8.46763 32.708L8.3219 32.6224L8.17697 32.5352L8.03289 32.4467L7.88961 32.3565L7.74718 32.2651L7.60572 32.1721L7.46503 32.0778L7.3253 31.9819L7.18653 31.8847L7.04863 31.786L6.91168 31.6859L6.77571 31.5845L6.6407 31.4816L6.5067 31.3774L6.37369 31.2719L6.2417 31.1649L6.11075 31.0566L5.98084 30.947L5.85199 30.836L5.72422 30.7238L5.59755 30.6101L5.47197 30.4952L5.34752 30.3791L5.22419 30.2616L5.10201 30.143L4.98099 30.0229L4.86113 29.9017L4.74246 29.7793L4.62498 29.6556L4.50872 29.5307L4.39368 29.4046L4.27988 29.2773L4.16733 29.1489L4.05603 29.0193L3.94601 28.8885L3.83727 28.7566L3.72984 28.6235L3.62371 28.4894L3.51891 28.3541L3.41544 28.2178L3.31331 28.0803L3.21254 27.9418L3.11314 27.8022L3.01511 27.6616L2.91849 27.5201L2.82325 27.3774L2.72944 27.2338L2.63705 27.0892L2.54608 26.9436L2.45656 26.797L2.36851 26.6496L2.28191 26.5011L2.19679 26.3519L2.11315 26.2016L2.03101 26.0505L1.95038 25.8984L1.87125 25.7456L1.79365 25.5919L1.71758 25.4374L1.64306 25.2821L1.57009 25.1259L1.49867 24.969L1.42882 24.8112L1.36055 24.6529L1.29386 24.4936L1.22877 24.3337L1.16527 24.1731L1.10339 24.0117L1.04313 23.8498L0.984486 23.6871L0.927474 23.5238L0.872094 23.36L0.818365 23.1954L0.766295 23.0303L0.715874 22.8645L0.66713 22.6983L0.620053 22.5314L0.574652 22.364L0.530935 22.1962L0.488912 22.0279L0.448583 21.859L0.409964 21.6897L0.373048 21.5198L0.337842 21.3496L0.304356 21.179L0.272589 21.0081L0.24255 20.8366L0.214248 20.6649L0.187674 20.4928L0.162846 20.3203L0.139764 20.1475L0.118435 19.9744L0.0988524 19.8011L0.0810238 19.6275L0.0649579 19.4537L0.050655 19.2796L0.038115 19.1053L0.0273467 18.9308L0.0183498 18.7561L0.0111245 18.5813L0.00567083 18.4064L0.00199739 18.2313L0.000112841 18.0561L0 17.8809ZM16.8283 5.04612L16.7887 1.67719L16.7511 1.68085L16.5785 1.69936L16.4063 1.71956L16.2342 1.74147L16.0627 1.76501L15.8915 1.79026L15.7204 1.8172L15.5499 1.84579L15.3795 1.8761L15.21 1.90797L15.0402 1.94163L14.8716 1.97681L14.7028 2.01376L14.5349 2.05228L14.3671 2.09251L14.2001 2.13428L14.0335 2.17774L13.8674 2.22281L13.7018 2.2695L13.5369 2.31777L13.3724 2.3677L13.2087 2.41917L13.0454 2.47229L12.883 2.52687L12.7209 2.58317L12.5596 2.64099L12.3991 2.70033L12.2391 2.76129L12.0799 2.82374L11.9216 2.88769L11.7637 2.95329L11.6066 3.02038L11.4503 3.089L11.2949 3.15906L11.1402 3.23064L10.9864 3.30367L10.8331 3.3783L10.681 3.45431L10.5296 3.53179L10.3791 3.61073L10.2295 3.69113L10.0809 3.77291L9.93291 3.8562L9.78589 3.94094L9.64017 4.02688L9.49488 4.1145L9.35098 4.20329L9.20804 4.29346L9.06579 4.38511L8.92468 4.47809L8.7846 4.57243L8.64583 4.66789L8.50757 4.76503L8.37071 4.86321L8.23489 4.96276L8.10002 5.06366L7.96637 5.16576L7.83394 5.26909L7.70229 5.37387L7.57211 5.47965L7.44289 5.58682L7.31488 5.69516L7.18801 5.80475L7.06243 5.91539L6.9378 6.02744L6.81459 6.14048L6.69243 6.25482L6.57168 6.37013L6.45204 6.48669L6.33372 6.6043L6.21662 6.72307L6.10065 6.84307L5.9862 6.96389L5.87304 7.08575L5.76088 7.20904L5.65028 7.33311L5.54103 7.45806L5.4329 7.58433L5.32635 7.71137L5.22097 7.83956L5.11701 7.96863L5.01442 8.09874L4.91316 8.22972L4.8134 8.36159L4.71494 8.49441L4.61783 8.62829L4.52228 8.76277L4.42802 8.8984L4.33525 9.03473L4.24392 9.17192L4.15396 9.31L4.06552 9.44886L3.97853 9.58843L3.893 9.72886L3.809 9.87L3.72638 10.012L3.64524 10.1548L3.5657 10.2981L3.48759 10.4423L3.41097 10.5871L3.3359 10.7327L3.26231 10.8789L3.1903 11.0256L3.11979 11.173L3.05084 11.3211L2.98339 11.4699L2.91754 11.619L2.85318 11.7689L2.79039 11.9193L2.72921 12.0702L2.66956 12.2216L2.61147 12.3736L2.55498 12.5261L2.50005 12.679L2.44675 12.8323L2.39498 12.9862L2.34482 13.1405L2.29627 13.2952L2.24932 13.4501L2.20394 13.6057L2.1602 13.7615L2.11805 13.9177L2.07751 14.0741L2.03857 14.231L2.00127 14.3881L1.96558 14.5455L1.9315 14.7032L1.89905 14.8611L1.86822 15.0192L1.839 15.1776L1.81142 15.3361L1.78547 15.4949L1.76114 15.6538L1.73844 15.8129L1.71737 15.9722L1.69793 16.1315L1.68012 16.2909L1.66394 16.4505L1.64939 16.6101L1.63647 16.7697L1.62518 16.9295L1.61552 17.0893L1.60749 17.249L1.60109 17.4087L1.59631 17.5684L1.59317 17.7281L1.59164 17.8877L1.59175 18.0473L1.59347 18.2067L1.59681 18.3662L1.60177 18.5254L1.60834 18.6845L1.61654 18.8435L1.62634 19.0022L1.63775 19.1608L1.65076 19.3192L1.66539 19.4774L1.6816 19.6354L1.69942 19.7931L1.71883 19.9506L1.73983 20.1078L1.76242 20.2646L1.78659 20.4213L1.81233 20.5775L1.83966 20.7334L1.86856 20.889L1.89901 21.0441L1.93103 21.199L1.9646 21.3533L1.99973 21.5073L2.0364 21.6609L2.07461 21.814L2.11437 21.9667L2.15564 22.1188L2.19845 22.2705L2.24278 22.4217L2.28861 22.5724L2.33596 22.7225L2.38479 22.8721L2.43512 23.0211L2.48695 23.1695L2.54025 23.3173L2.59502 23.4645L2.65128 23.6112L2.70897 23.7571L2.76812 23.9025L2.82872 24.0471L2.89076 24.191L2.95423 24.3344L3.01912 24.477L3.08542 24.6188L3.15312 24.76L3.22223 24.9003L3.29272 25.04L3.3646 25.1788L3.43784 25.3169L3.51246 25.4542L3.58842 25.5906L3.66573 25.7262L3.74437 25.8611L3.82435 25.9949L3.90561 26.128L3.98823 26.2602L4.07211 26.3915L4.1573 26.5219L4.24377 26.6515L4.33149 26.78L4.42047 26.9076L4.51073 27.0344L4.60219 27.1601L4.69491 27.2849L4.7888 27.4086L4.88396 27.5314L4.98025 27.6531L5.07775 27.7738L5.17646 27.8936L5.27627 28.0123L5.37726 28.1298L5.47938 28.2464L5.58266 28.3619L5.68703 28.4763L5.79248 28.5896L5.89905 28.7017L6.00669 28.8129L6.11544 28.9229L6.22521 29.0316L6.33605 29.1393L6.44789 29.2458L6.56076 29.3513L6.67467 29.4555L6.78955 29.5585L6.90535 29.6602L7.02223 29.7609L7.14007 29.8603L7.2587 29.9584L7.37845 30.0555L7.49899 30.1511L7.62048 30.2456L7.74284 30.3389L7.86616 30.4308L7.99025 30.5215L8.11522 30.6109L8.24097 30.699L8.36767 30.7859L8.49507 30.8714L8.62342 30.9557L8.75238 31.0386L8.88221 31.1202L9.01282 31.2005L9.14404 31.2794L9.27612 31.357L9.40882 31.4332L9.5423 31.5081L9.67638 31.5816L9.81125 31.6538L9.94663 31.7246L10.0827 31.7941L10.2195 31.8621L10.3569 31.9288L10.4948 31.994L10.6333 32.0579L10.7723 32.1203L10.9121 32.1814L11.0522 32.241L11.193 32.2992L11.3342 32.356L11.4759 32.4113L11.6182 32.4653L11.7608 32.5178L11.9039 32.5688L12.0475 32.6184L12.1915 32.6666L12.3359 32.7134L12.4806 32.7586L12.6259 32.8024L12.7713 32.8448L12.9172 32.8857L13.0635 32.9251L13.21 32.9631L13.3568 32.9996L13.5039 33.0346L13.6513 33.0682L13.7989 33.1002L13.9468 33.1308L14.0949 33.16L14.2432 33.1876L14.3917 33.2138L14.5404 33.2385L14.6893 33.2616L14.8383 33.2833L14.9875 33.3036L15.1367 33.3224L15.286 33.3396L15.4355 33.3554L15.585 33.3697L15.7347 33.3825L15.8843 33.3938L16.0339 33.4036L16.1836 33.4121L16.3333 33.4189L16.4829 33.4243L16.6325 33.4282L16.7821 33.4306L16.9316 33.4316L17.0811 33.431L17.2304 33.429L17.3796 33.4256L17.5287 33.4206L17.6778 33.4142L17.8266 33.4064L17.9752 33.397L18.1237 33.3862L18.272 33.374L18.4201 33.3603L18.5679 33.345L18.7155 33.3284L18.8628 33.3104L19.0099 33.2909L19.1567 33.2699L19.3032 33.2475L19.4493 33.2237L19.5952 33.1984L19.7408 33.1717L19.8859 33.1436L20.0307 33.1141L20.1751 33.0831L20.3191 33.0508L20.4626 33.0171L20.6058 32.9819L20.7485 32.9454L20.8907 32.9074L21.0325 32.8682L21.1738 32.8275L21.3146 32.7854L21.455 32.742L21.5947 32.6973L21.734 32.6511L21.8727 32.6036L22.0107 32.5548L22.1483 32.5046L22.2852 32.4531L22.4216 32.4003L22.5573 32.3462L22.6924 32.2908L22.8268 32.234L22.9606 32.176L23.0937 32.1167L23.2261 32.0562L23.3579 31.9943L23.489 31.9311L23.6192 31.8668L23.7489 31.8011L23.8777 31.7342L24.0058 31.6662L24.1332 31.5968L24.2596 31.5262L24.3853 31.4545L24.5102 31.3816L24.6345 31.3074L24.7576 31.2322L24.8803 31.1556L25.0018 31.078L25.1225 30.9991L25.2424 30.9192L25.3615 30.838L25.4794 30.7559L25.5965 30.6725L25.7128 30.5881L25.8281 30.5026L25.9426 30.4159L26.0559 30.3283L26.1686 30.2394L26.28 30.1496L26.3904 30.0588L26.5001 29.9668L26.6087 29.8738L26.7161 29.7799L26.8227 29.6849L26.9281 29.589L27.0326 29.492L27.136 29.3941L27.2382 29.2954L27.3395 29.1954L27.4398 29.0946L27.5388 28.993L27.6369 28.8903L27.7337 28.7869L27.8294 28.6826L27.9243 28.5771L28.0177 28.471L28.1102 28.3639L28.2014 28.2561L28.2915 28.1474L28.3804 28.0379L28.4681 27.9275L28.5548 27.8163L28.6402 27.7045L28.7245 27.5917L28.8074 27.4783L28.8893 27.364L28.9701 27.249L29.0493 27.1335L29.1275 27.017L29.2044 26.9L29.2801 26.7822L29.3547 26.6636L29.4278 26.5446L29.4997 26.4249L29.5705 26.3043L29.6398 26.1834L29.708 26.0617L29.7749 25.9394L29.8404 25.8167L29.9048 25.6931L29.9678 25.5691L30.0294 25.4449L30.0898 25.3197L30.149 25.194L30.2067 25.0681L30.2632 24.9415L30.3183 24.8145L30.3721 24.6871L30.4246 24.559L30.4758 24.4305L30.5255 24.302L30.574 24.1725L30.621 24.043L30.6669 23.9129L30.7114 23.7825L30.7544 23.6517L30.796 23.5209L30.8365 23.3891L30.8754 23.2575L30.913 23.1255L30.9493 22.9932L30.9842 22.8605L31.0177 22.7278L31.0499 22.5946L31.0806 22.4612L31.1101 22.3276L31.1381 22.1938L31.1647 22.06L31.1899 21.9256L31.2138 21.7915L31.2363 21.6569L31.2574 21.5223L31.2771 21.3876L31.2955 21.2527L31.3125 21.118L31.3281 20.9826L31.3423 20.8477L31.3551 20.7125L31.3665 20.5775L31.3766 20.442L31.3853 20.3071L31.3926 20.1717L31.3985 20.0363L31.403 19.9012L31.4062 19.7663L31.4079 19.631L31.4084 19.4959L31.4074 19.361L31.4051 19.2261L31.4013 19.0913L31.3962 18.957L31.3898 18.8221L31.382 18.6879L31.3728 18.5537L31.3622 18.4199L31.3503 18.2858L31.3371 18.1524L31.3226 18.0189L31.3066 17.8858L31.2893 17.7528L31.2707 17.6202L31.2507 17.4876L31.2294 17.3555L31.2068 17.2239L31.1828 17.0923L31.1575 16.961L31.1309 16.8303L31.1029 16.6995L31.0738 16.5696L31.0432 16.4396L31.0115 16.3104L30.9782 16.1811L30.9438 16.0527L30.9081 15.9246L30.8711 15.7966L30.8329 15.6695L30.7934 15.5428L30.7525 15.4162L30.7106 15.2905L30.6672 15.165L30.6227 15.0402L30.5768 14.9157L30.5299 14.792L30.4815 14.6686L30.432 14.5458L30.3814 14.4238L30.3295 14.3024L30.2762 14.1811L30.2221 14.061L30.1664 13.9409L30.1098 13.822L30.052 13.7035L29.9928 13.5855L29.9327 13.4684L29.8713 13.3519L29.8087 13.2359L29.7453 13.121L29.6805 13.0064L29.6146 12.8927L29.5475 12.7796L29.4796 12.6676L29.4102 12.5558L29.34 12.4451L29.2686 12.335L29.1961 12.2258L29.1228 12.1175L29.0481 12.0097L28.9724 11.9029L28.8958 11.7968L28.8181 11.6918L28.7394 11.5873L28.6597 11.4839L28.579 11.3811L28.4973 11.2794L28.4146 11.1785L28.3309 11.0784L28.2463 10.9792L28.1607 10.881L28.0743 10.7837L27.9869 10.6872L27.8983 10.5916L27.8093 10.4973L27.7188 10.4035L27.6279 10.311L27.5359 10.2192L27.4431 10.1286L27.3492 10.0386L27.2549 9.95006L27.1593 9.86221L27.063 9.77541L26.9662 9.68975L26.8684 9.60505L26.7695 9.52114L26.6701 9.43845L26.5699 9.35681L26.469 9.27623L26.3672 9.1966L26.2649 9.11829L26.1614 9.04059L26.0577 8.96438L25.953 8.88913L25.8476 8.81484L25.7417 8.74177L25.6347 8.66959L25.5278 8.59889L25.4195 8.52898L25.311 8.46029L25.2016 8.39265L25.0917 8.32615L24.9813 8.26087L24.8704 8.19683L24.7584 8.13356L24.6465 8.07179L24.5336 8.01097L24.4203 7.95139L24.3065 7.89303L24.192 7.83571L24.0771 7.77954L23.9618 7.72468L23.8459 7.67086L23.7297 7.61836L23.6129 7.56691L23.4919 7.51511L23.3782 7.46777L23.2598 7.41983L23.1416 7.37336L23.0224 7.32778L22.9033 7.28367L22.7836 7.24062L22.6637 7.19889L22.5433 7.1582L22.4227 7.11891L22.3017 7.08076L22.1803 7.04384L22.0589 7.00823L21.937 6.97372L21.8146 6.94039L21.6925 6.90843L21.57 6.87768L21.4468 6.84806L21.324 6.81981L21.2006 6.79269L21.0772 6.76687L20.9533 6.74223L20.8297 6.71889L20.7057 6.69675L20.5818 6.6759L20.4572 6.65621L20.333 6.63783L20.2086 6.62066L20.084 6.60473L19.9594 6.59004L19.8347 6.57662L19.71 6.56442L19.5852 6.55347L19.4604 6.54375L19.3354 6.53526L19.2108 6.52803L19.0861 6.52204L18.9609 6.51727L18.8365 6.51375L18.7118 6.51146L18.5872 6.51041L18.4624 6.51059L18.4374 6.51088L18.4767 9.8553L18.5475 9.85495L18.6386 9.85548L18.7297 9.85688L18.8209 9.85924L18.9121 9.86248L19.0034 9.86668L19.0947 9.87175L19.186 9.8777L19.2774 9.88461L19.3687 9.8924L19.4601 9.90115L19.5514 9.91078L19.6427 9.92136L19.734 9.93283L19.8252 9.94516L19.9164 9.95855L20.0075 9.97272L20.0985 9.98786L20.1895 10.004L20.2803 10.0209L20.3711 10.0389L20.4617 10.0577L20.5523 10.0774L20.6427 10.098L20.7329 10.1196L20.8231 10.1421L20.913 10.1655L21.0028 10.1898L21.0924 10.215L21.1818 10.2412L21.2711 10.2682L21.3601 10.2961L21.4489 10.325L21.5374 10.3547L21.6259 10.3855L21.7139 10.417L21.8018 10.4495L21.8893 10.4829L21.9767 10.5171L22.0637 10.5523L22.1505 10.5884L22.2369 10.6254L22.323 10.6632L22.4088 10.702L22.4943 10.7415L22.5794 10.782L22.6642 10.8234L22.7486 10.8657L22.8327 10.9088L22.9164 10.9528L22.9997 10.9976L23.0826 11.0434L23.1651 11.0899L23.2472 11.1374L23.3289 11.1856L23.4102 11.2348L23.491 11.2848L23.5713 11.3356L23.6512 11.3873L23.7306 11.4398L23.8096 11.4931L23.8881 11.5473L23.9661 11.6023L24.0435 11.6581L24.1205 11.7147L24.1969 11.7722L24.2729 11.8303L24.3482 11.8894L24.423 11.9493L24.4973 12.0098L24.571 12.0712L24.6441 12.1335L24.7167 12.1964L24.7887 12.2601L24.8601 12.3246L24.9309 12.3898L25.001 12.4558L25.0705 12.5226L25.1394 12.59L25.2077 12.6583L25.2753 12.7272L25.3423 12.797L25.4086 12.8673L25.4742 12.9385L25.5391 13.0103L25.6034 13.0828L25.667 13.156L25.7298 13.2299L25.792 13.3045L25.8535 13.3797L25.9142 13.4557L25.9742 13.5322L26.0334 13.6095L26.092 13.6874L26.1497 13.7659L26.2067 13.845L26.263 13.9248L26.3184 14.0052L26.3731 14.0863L26.4269 14.1679L26.48 14.2501L26.5323 14.3329L26.5838 14.4163L26.6345 14.5002L26.6843 14.5848L26.7333 14.6699L26.7815 14.7555L26.8288 14.8417L26.8753 14.9284L26.921 15.0156L26.9658 15.1034L27.0096 15.1917L27.0527 15.2805L27.0949 15.3697L27.1362 15.4594L27.1765 15.5497L27.2161 15.6404L27.2547 15.7315L27.2924 15.8231L27.3292 15.9152L27.3651 16.0077L27.4 16.1005L27.434 16.1939L27.4671 16.2876L27.4993 16.3818L27.5306 16.4762L27.5608 16.5712L27.5902 16.6664L27.6186 16.762L27.646 16.858L27.6725 16.9544L27.6979 17.051L27.7225 17.148L27.7461 17.2453L27.7686 17.3428L27.7903 17.4408L27.8108 17.5389L27.8305 17.6374L27.849 17.7361L27.8667 17.8351L27.8833 17.9343L27.899 18.0338L27.9136 18.1335L27.9272 18.2333L27.9398 18.3334L27.9514 18.4338L27.9619 18.5343L27.9715 18.635L27.9801 18.7358L27.9876 18.8368L27.9941 18.938L27.9995 19.0392L28.0039 19.1406L28.0073 19.2422L28.0096 19.3438L28.0109 19.4456L28.0112 19.5474L28.0104 19.6493L28.0086 19.7512L28.0057 19.8532L28.0018 19.9553L27.9969 20.0574L27.9909 20.1595L27.9838 20.2617L27.9757 20.3638L27.9665 20.4659L27.9564 20.568L27.9451 20.67L27.9328 20.7721L27.9195 20.8741L27.9051 20.976L27.8896 21.0779L27.8731 21.1796L27.8556 21.2813L27.8369 21.3829L27.8173 21.4844L27.7965 21.5857L27.7747 21.687L27.752 21.788L27.7281 21.8889L27.7032 21.9896L27.6772 22.0903L27.6502 22.1906L27.6221 22.2908L27.593 22.3907L27.5629 22.4905L27.5317 22.59L27.4994 22.6894L27.4662 22.7883L27.4319 22.8871L27.3966 22.9856L27.3602 23.0838L27.3228 23.1817L27.2844 23.2794L27.245 23.3767L27.2045 23.4737L27.163 23.5703L27.1205 23.6666L27.077 23.7626L27.0325 23.8582L26.987 23.9534L26.9404 24.0482L26.8928 24.1427L26.8443 24.2367L26.7948 24.3302L26.7442 24.4234L26.6927 24.5162L26.6403 24.6085L26.5868 24.7003L26.5323 24.7917L26.4769 24.8826L26.4206 24.973L26.3632 25.0629L26.3049 25.1523L26.2456 25.2411L26.1854 25.3295L26.1243 25.4173L26.0622 25.5046L25.9991 25.5913L25.9352 25.6775L25.8703 25.7631L25.8045 25.848L25.7378 25.9324L25.6702 26.0162L25.6017 26.0993L25.5323 26.1819L25.4619 26.2638L25.3907 26.3451L25.3186 26.4257L25.2457 26.5057L25.1719 26.585L25.0973 26.6636L25.0217 26.7415L24.9454 26.8188L24.8681 26.8952L24.7901 26.9711L24.7112 27.0462L24.6315 27.1205L24.551 27.1941L24.4697 27.2669L24.3876 27.339L24.3047 27.4104L24.221 27.4809L24.1365 27.5508L24.0514 27.6197L23.9653 27.6879L23.8785 27.7553L23.7911 27.8218L23.7029 27.8876L23.6138 27.9525L23.5242 28.0166L23.4338 28.0798L23.3427 28.1422L23.2508 28.2037L23.1584 28.2643L23.0652 28.3241L22.9714 28.383L22.8768 28.4409L22.7817 28.498L22.6859 28.5542L22.5895 28.6094L22.4924 28.6638L22.3947 28.7172L22.2964 28.7697L22.1974 28.8213L22.0979 28.8718L21.9979 28.9215L21.8972 28.9702L21.796 29.0179L21.6942 29.0646L21.5919 29.1104L21.4891 29.1552L21.3857 29.1989L21.2818 29.2417L21.1774 29.2835L21.0725 29.3243L20.9672 29.3641L20.8613 29.4029L20.755 29.4406L20.6482 29.4773L20.541 29.513L20.4333 29.5475L20.3253 29.5811L20.2168 29.6137L20.1079 29.6451L19.9987 29.6755L19.889 29.7048L19.779 29.7331L19.6686 29.7603L19.5579 29.7865L19.4467 29.8115L19.3354 29.8355L19.2236 29.8583L19.1116 29.8801L18.9993 29.9009L18.8867 29.9205L18.7738 29.9389L18.6607 29.9562L18.5473 29.9725L18.4336 29.9876L18.3198 30.0017L18.2058 30.0146L18.0915 30.0264L17.977 30.0371L17.8624 30.0466L17.7476 30.055L17.6326 30.0623L17.5174 30.0684L17.4022 30.0734L17.2868 30.0773L17.1713 30.08L17.0557 30.0815L16.9399 30.082L16.8242 30.0813L16.7084 30.0794L16.5925 30.0764L16.4766 30.0722L16.3606 30.0668L16.2446 30.0604L16.1287 30.0528L16.0126 30.044L15.8967 30.034L15.7808 30.0229L15.6648 30.0107L15.549 29.9973L15.4332 29.9827L15.3175 29.967L15.2019 29.9501L15.0864 29.9321L14.971 29.9129L14.8556 29.8925L14.7405 29.8711L14.6255 29.8484L14.5107 29.8246L14.396 29.7996L14.2815 29.7735L14.1672 29.7462L14.0531 29.7178L13.9393 29.6882L13.8256 29.6575L13.7122 29.6257L13.5991 29.5927L13.4862 29.5586L13.3736 29.5233L13.2613 29.4868L13.1494 29.4493L13.0376 29.4106L12.9263 29.3708L12.8153 29.3298L12.7046 29.2877L12.5943 29.2445L12.4843 29.2002L12.3747 29.1547L12.2656 29.1082L12.1569 29.0606L12.0486 29.0118L11.9406 28.9619L11.8332 28.911L11.7262 28.8589L11.6196 28.8057L11.5135 28.7514L11.408 28.6962L11.3029 28.6397L11.1984 28.5822L11.0943 28.5237L10.9908 28.464L10.8878 28.4034L10.7854 28.3416L10.6836 28.2788L10.5823 28.215L10.4817 28.1501L10.3816 28.0842L10.2822 28.0172L10.1834 27.9492L10.0851 27.8802L9.98762 27.8102L9.89071 27.7392L9.79449 27.6671L9.69887 27.5941L9.60404 27.5201L9.5099 27.4451L9.41646 27.369L9.32372 27.2921L9.23166 27.2142L9.14039 27.1353L9.0499 27.0554L8.96011 26.9747L8.87109 26.8929L8.78295 26.8104L8.6955 26.7268L8.60883 26.6423L8.52303 26.5569L8.4381 26.4706L8.35395 26.3834L8.27058 26.2953L8.18808 26.2063L8.10654 26.1166L8.02577 26.0258L7.94588 25.9343L7.86694 25.8419L7.78878 25.7487L7.71167 25.6546L7.63533 25.5597L7.56004 25.4641L7.48562 25.3676L7.41215 25.2703L7.33963 25.1722L7.26799 25.0734L7.19739 24.9737L7.12783 24.8734L7.05913 24.7722L6.99148 24.6704L6.92484 24.5678L6.8592 24.4645L6.79456 24.3604L6.73096 24.2557L6.66838 24.1503L6.60684 24.0442L6.54635 23.9374L6.48691 23.83L6.42853 23.7219L6.37122 23.6132L6.31498 23.5038L6.25983 23.3938L6.20577 23.2832L6.15281 23.172L6.10094 23.0603L6.05019 22.9478L6.00056 22.835L5.95204 22.7215L5.90466 22.6074L5.85841 22.4928L5.81331 22.3778L5.76936 22.2621L5.72655 22.146L5.6849 22.0294L5.64442 21.9123L5.60512 21.7948L5.56699 21.6767L5.53004 21.5583L5.49427 21.4394L5.4597 21.3201L5.42633 21.2004L5.39415 21.0802L5.36319 20.9597L5.33344 20.8388L5.3049 20.7176L5.27759 20.5959L5.25149 20.4739L5.22663 20.3517L5.203 20.2291L5.1806 20.1062L5.15945 19.983L5.13954 19.8595L5.12088 19.7358L5.10347 19.6118L5.08731 19.4876L5.07242 19.3631L5.05879 19.2384L5.04641 19.1135L5.0353 18.9884L5.02547 18.8631L5.01691 18.7377L5.00962 18.612L5.00361 18.4863L4.99887 18.3605L4.99543 18.2345L4.99326 18.1084L4.99237 17.9821L4.99278 17.8559L4.99446 17.7295L4.99745 17.6032L5.00171 17.4767L5.00728 17.3502L5.01414 17.2238L5.02229 17.0972L5.03174 16.9708L5.04247 16.8443L5.05451 16.7179L5.06784 16.5915L5.08247 16.4652L5.0984 16.339L5.11562 16.2128L5.13413 16.0867L5.15395 15.9608L5.17505 15.835L5.19746 15.7093L5.22116 15.5837L5.24615 15.4584L5.27243 15.3332L5.30001 15.2082L5.32887 15.0834L5.35903 14.9588L5.39046 14.8345L5.42319 14.7104L5.4572 14.5865L5.49249 14.463L5.52907 14.3397L5.56692 14.2167L5.60605 14.0939L5.64645 13.9716L5.68811 13.8495L5.73106 13.7278L5.77526 13.6064L5.82072 13.4854L5.86744 13.3648L5.91542 13.2446L5.96465 13.1248L6.01514 13.0055L6.06686 12.8865L6.11983 12.768L6.17403 12.65L6.22947 12.5324L6.28613 12.4153L6.34403 12.2987L6.40315 12.1826L6.46348 12.0671L6.52501 11.9521L6.58776 11.8376L6.65171 11.7237L6.71685 11.6103L6.78319 11.4976L6.85072 11.3854L6.91942 11.2739L6.98931 11.1629L7.06035 11.0526L7.1326 10.9429L7.2059 10.8339L7.28049 10.7256L7.35613 10.6179L7.4329 10.5108L7.51089 10.4046L7.58991 10.299L7.67016 10.1942L7.75144 10.0901L7.83385 9.98672L7.91731 9.88418L8.00189 9.78232L8.0876 9.68126L8.17436 9.58099L8.26216 9.48159L8.35108 9.38297L8.44096 9.28515L8.53198 9.1882L8.62403 9.09204L8.71704 8.99684L8.81109 8.90243L8.90618 8.80889L9.00231 8.71631L9.0994 8.62453L9.19745 8.53379L9.29653 8.44384L9.39657 8.35494L9.49749 8.26691L9.59944 8.17985L9.70235 8.09375L9.80612 8.00861L9.91086 7.92444L10.0165 7.84131L10.1231 7.75915L10.2305 7.67804L10.3389 7.59789L10.4481 7.51879L10.5581 7.44074L10.6691 7.36374L10.7808 7.28779L10.8934 7.21297L11.0069 7.13913L11.1211 7.06641L11.2362 6.99478L11.352 6.92425L11.4686 6.85483L11.586 6.78653L11.7041 6.71934L11.823 6.65329L11.9426 6.58839L12.063 6.52464L12.184 6.46204L12.3058 6.40061L12.4282 6.34035L12.5514 6.28127L12.6752 6.22338L12.7997 6.16668L12.9248 6.11117L13.0505 6.05689L13.1769 6.00382L13.3039 5.95197L13.4313 5.90135L13.5595 5.85196L13.6882 5.80382L13.8175 5.75693L13.9474 5.71129L14.0777 5.66691L14.2086 5.6238L14.3399 5.58197L14.4718 5.5414L14.6041 5.50212L14.737 5.46414L14.8702 5.42744L15.004 5.39205L15.1381 5.35796L15.2727 5.32518L15.4077 5.29372L15.5431 5.26357L15.6788 5.23475L15.8149 5.20726L15.9514 5.1811L16.0882 5.15628L16.2253 5.13279L16.3628 5.11066L16.5005 5.08987L16.6385 5.07043L16.7768 5.05235L16.8283 5.04612ZM16.8867 10.0066L16.8469 6.6254L16.7336 6.64136L16.6118 6.65977L16.4898 6.67939L16.3687 6.70014L16.2474 6.72215L16.1267 6.7453L16.0062 6.76963L15.8862 6.7951L15.7664 6.82178L15.6469 6.84964L15.5278 6.87865L15.4092 6.9088L15.2906 6.94016L15.1768 6.97147L15.0555 7.00621L14.9383 7.04095L14.8217 7.07683L14.7057 7.11375L14.5899 7.1519L14.4746 7.19119L14.3598 7.23153L14.2456 7.27291L14.1318 7.31553L14.0186 7.3591L13.9058 7.4039L13.7938 7.44966L13.6819 7.49665L13.5708 7.5446L13.4603 7.5936L13.3505 7.64365L13.241 7.69484L13.1321 7.74708L13.0241 7.80019L12.9164 7.85453L12.8097 7.90974L12.7033 7.96618L12.5978 8.02331L12.4926 8.08185L12.3884 8.141L12.2849 8.20129L12.1819 8.26262L12.0796 8.32484L11.978 8.38819L11.8773 8.45224L11.7771 8.51742L11.6778 8.58349L11.5793 8.65043L11.4814 8.71841L11.3841 8.78736L11.288 8.85693L11.1924 8.92771L11.0976 8.99929L11.0036 9.07174L10.9105 9.14497L10.818 9.21926L10.7266 9.29425L10.6359 9.37011L10.5459 9.44703L10.4571 9.52446L10.3689 9.60295L10.2815 9.68223L10.1951 9.7622L10.1096 9.84296L10.0248 9.92469L9.94116 10.0069L9.85832 10.0901L9.77625 10.1741L9.69523 10.2587L9.61507 10.3442L9.53587 10.4303L9.45763 10.5171L9.38025 10.6047L9.30374 10.693L9.22854 10.7818L9.15403 10.8715L9.08047 10.9619L9.00796 11.0528L8.93649 11.1444L8.8658 11.2368L8.79624 11.3296L8.72763 11.4231L8.66007 11.5173L8.59346 11.612L8.52798 11.7072L8.46346 11.8031L8.39989 11.8996L8.33736 11.9967L8.27596 12.0942L8.21561 12.1923L8.15621 12.291L8.09785 12.3901L8.04062 12.4898L7.98435 12.5899L7.92929 12.6904L7.87519 12.7915L7.82204 12.8932L7.7702 12.9951L7.71931 13.0976L7.66955 13.2005L7.62083 13.3037L7.57324 13.4074L7.52669 13.5115L7.48127 13.616L7.4369 13.7208L7.39374 13.826L7.35162 13.9315L7.31054 14.0375L7.27059 14.1437L7.23186 14.2502L7.19409 14.3571L7.15761 14.4641L7.12209 14.5716L7.08779 14.6793L7.05453 14.7872L7.02249 14.8954L6.99148 15.0038L6.9617 15.1124L6.93296 15.2213L6.90538 15.3303L6.87894 15.4396L6.85363 15.5491L6.82944 15.6586L6.80639 15.7685L6.7845 15.8784L6.76371 15.9883L6.74407 16.0986L6.72558 16.2089L6.7082 16.3193L6.69199 16.4296L6.67689 16.5402L6.66294 16.6508L6.65012 16.7615L6.63844 16.8722L6.6279 16.983L6.6185 17.0937L6.61023 17.2044L6.60309 17.3153L6.59708 17.4261L6.59221 17.5367L6.58848 17.6474L6.58586 17.758L6.58439 17.8686L6.58403 17.9792L6.5848 18.0897L6.5867 18.2L6.58973 18.3103L6.59386 18.4203L6.59912 18.5304L6.6055 18.6403L6.61298 18.7499L6.62159 18.8596L6.6313 18.969L6.64212 19.0781L6.65404 19.1872L6.66706 19.296L6.68119 19.4047L6.6964 19.513L6.71272 19.6213L6.73012 19.7291L6.7486 19.8368L6.76818 19.9442L6.78882 20.0512L6.81055 20.1582L6.83334 20.2646L6.85721 20.371L6.88211 20.4767L6.90811 20.5824L6.93516 20.6876L6.96326 20.7925L6.99235 20.897L7.02257 21.0012L7.05375 21.105L7.08606 21.2084L7.11932 21.3115L7.15362 21.4141L7.18896 21.5162L7.22526 21.6179L7.2626 21.7192L7.30099 21.8201L7.34033 21.9205L7.38062 22.0204L7.42196 22.1199L7.46425 22.2189L7.50759 22.3173L7.55179 22.4153L7.59703 22.5127L7.64323 22.6096L7.6903 22.7061L7.73841 22.8019L7.78739 22.8973L7.83733 22.992L7.88822 23.0862L7.93997 23.1798L7.99269 23.2728L8.04627 23.3652L8.10081 23.457L8.15621 23.5483L8.21248 23.6388L8.26963 23.7288L8.32772 23.8182L8.38651 23.9067L8.44635 23.9949L8.50688 24.0822L8.56836 24.1689L8.63063 24.2549L8.69376 24.3402L8.75768 24.4248L8.82246 24.5088L8.88794 24.5921L8.95429 24.6746L9.02142 24.7564L9.08933 24.8375L9.15802 24.9177L9.22749 24.9974L9.29766 25.0762L9.36861 25.1543L9.44026 25.2316L9.51268 25.3081L9.5858 25.3839L9.65971 25.4589L9.73422 25.5331L9.80951 25.6065L9.8855 25.6792L9.962 25.7509L10.0394 25.822L10.1173 25.892L10.1959 25.9613L10.2752 26.0299L10.3551 26.0975L10.4356 26.1643L10.5167 26.2302L10.5984 26.2953L10.6807 26.3595L10.7636 26.423L10.8472 26.4855L10.9312 26.5471L11.0157 26.6078L11.1009 26.6676L11.1867 26.7266L11.273 26.7847L11.3597 26.8418L11.447 26.8981L11.5348 26.9535L11.623 27.0079L11.7118 27.0615L11.8011 27.1141L11.8907 27.1657L11.9809 27.2164L12.0714 27.2662L12.1625 27.3151L12.2539 27.3631L12.3457 27.41L12.438 27.4561L12.5308 27.5012L12.6238 27.5454L12.7172 27.5885L12.811 27.6307L12.9051 27.672L12.9996 27.7122L13.0944 27.7516L13.1896 27.7899L13.2849 27.8273L13.3807 27.8637L13.4768 27.8991L13.5731 27.9336L13.6696 27.967L13.7666 27.9996L13.8636 28.031L13.961 28.0615L14.0586 28.091L14.1564 28.1195L14.2543 28.1471L14.3526 28.1736L14.451 28.1992L14.5495 28.2237L14.6483 28.2473L14.7472 28.2698L14.8463 28.2915L14.9454 28.312L15.0447 28.3315L15.1442 28.3501L15.2437 28.3677L15.3433 28.3843L15.443 28.3998L15.5428 28.4144L15.6427 28.428L15.7426 28.4406L15.8425 28.4521L15.9425 28.4627L16.0425 28.4722L16.1426 28.4808L16.2426 28.4883L16.3426 28.495L16.4426 28.5005L16.5426 28.5051L16.6426 28.5087L16.7425 28.5113L16.8422 28.5129L16.942 28.5135L17.0417 28.5132L17.1413 28.5118L17.2408 28.5095L17.3402 28.5062L17.4395 28.5019L17.5386 28.4966L17.6376 28.4903L17.7365 28.4831L17.8352 28.4749L17.9337 28.4657L18.0321 28.4555L18.1303 28.4444L18.2282 28.4323L18.326 28.4193L18.4236 28.4054L18.5209 28.3904L18.618 28.3745L18.7147 28.3577L18.8114 28.3399L18.9077 28.3211L19.0037 28.3015L19.0996 28.2809L19.195 28.2593L19.2901 28.237L19.385 28.2135L19.4795 28.1893L19.5738 28.1641L19.6677 28.1379L19.7612 28.1109L19.8544 28.0829L19.9471 28.0542L20.0395 28.0244L20.1316 27.9938L20.2233 27.9623L20.3145 27.9299L20.4054 27.8967L20.4958 27.8625L20.5857 27.8275L20.6753 27.7917L20.7645 27.7549L20.8531 27.7174L20.9413 27.679L21.0291 27.6398L21.1163 27.5997L21.2031 27.5587L21.2894 27.517L21.3751 27.4746L21.4605 27.4311L21.5452 27.387L21.6295 27.3419L21.713 27.2962L21.7962 27.2497L21.8789 27.2024L21.9609 27.1542L22.0424 27.1053L22.1234 27.0557L22.2036 27.0053L22.2835 26.9541L22.3625 26.9023L22.4411 26.8496L22.5192 26.7962L22.5965 26.7421L22.6731 26.6874L22.7493 26.6318L22.8247 26.5757L22.8996 26.5187L22.9738 26.4611L23.0471 26.4029L23.1201 26.3438L23.1924 26.2841L23.2637 26.2239L23.3347 26.1628L23.4048 26.1012L23.4742 26.0391L23.5432 25.976L23.6111 25.9127L23.6785 25.8486L23.7451 25.7838L23.811 25.7185L23.8762 25.6525L23.9407 25.586L24.0045 25.5189L24.0673 25.4513L24.1296 25.3831L24.1912 25.3143L24.2518 25.2451L24.3119 25.1751L24.371 25.1047L24.4294 25.0338L24.4871 24.9623L24.5439 24.8905L24.6 24.818L24.6553 24.7451L24.7099 24.6716L24.7635 24.5977L24.8163 24.5235L24.8685 24.4485L24.9198 24.3734L24.9702 24.2977L25.02 24.2215L25.0686 24.1451L25.1167 24.0681L25.1639 23.9907L25.2103 23.913L25.2557 23.8348L25.3005 23.7562L25.3442 23.6775L25.3872 23.5981L25.4294 23.5185L25.4705 23.4386L25.5111 23.3581L25.5505 23.2778L25.5893 23.1966L25.627 23.1157L25.6642 23.0338L25.7001 22.9522L25.7355 22.8699L25.7699 22.7876L25.8033 22.705L25.836 22.6221L25.8677 22.5389L25.8985 22.4557L25.9286 22.3719L25.9576 22.2881L25.9858 22.2041L26.0132 22.1198L26.0397 22.0353L26.0653 21.9507L26.09 21.866L26.1138 21.7809L26.1366 21.6959L26.1587 21.6106L26.1798 21.5252L26.2 21.4398L26.2194 21.3539L26.2378 21.2682L26.2554 21.1824L26.272 21.0965L26.2878 21.0105L26.3026 20.9241L26.3166 20.8381L26.3297 20.7519L26.3419 20.6655L26.3532 20.5793L26.3636 20.4929L26.3732 20.4063L26.3818 20.3203L26.3896 20.2336L26.3964 20.1472L26.4023 20.061L26.4075 19.9746L26.4116 19.8883L26.4149 19.8021L26.4174 19.7157L26.4188 19.6297L26.4195 19.5435L26.4193 19.4575L26.4182 19.3714L26.4162 19.2858L26.4134 19.1999L26.4096 19.1143L26.405 19.029L26.3996 18.9434L26.3932 18.8581L26.3861 18.7732L26.378 18.6881L26.3691 18.6035L26.3593 18.5187L26.3487 18.4343L26.3372 18.3501L26.3249 18.2659L26.3117 18.1821L26.2977 18.0985L26.2828 18.0151L26.2671 17.932L26.2505 17.8488L26.2332 17.7662L26.215 17.6838L26.196 17.6016L26.1761 17.5195L26.1555 17.4381L26.134 17.3565L26.1118 17.2756L26.0887 17.1947L26.0648 17.1144L26.0401 17.0341L26.0146 16.9543L25.9884 16.8749L25.9614 16.7958L25.9334 16.7168L25.9049 16.6385L25.8755 16.5603L25.8453 16.4827L25.8144 16.4053L25.7827 16.3282L25.7503 16.2518L25.7171 16.1755L25.6832 16.0998L25.6486 16.0246L25.6131 15.9495L25.5769 15.8749L25.5402 15.8009L25.5025 15.7272L25.4643 15.6541L25.4253 15.5815L25.3855 15.5089L25.3452 15.4373L25.3041 15.3659L25.2623 15.2951L25.2197 15.2246L25.1767 15.1548L25.1328 15.0853L25.0884 15.0165L25.0433 14.9481L24.9975 14.8803L24.951 14.8129L24.9039 14.7461L24.8563 14.68L24.8078 14.6141L24.7589 14.549L24.7093 14.4843L24.6592 14.4204L24.6084 14.3567L24.5569 14.2938L24.5049 14.2314L24.4524 14.1696L24.3993 14.1085L24.3455 14.0478L24.2913 13.9878L24.2364 13.9283L24.1812 13.8697L24.1251 13.8114L24.0687 13.7539L24.0116 13.6967L23.9541 13.6405L23.8962 13.5848L23.8376 13.5297L23.7785 13.4752L23.7189 13.4215L23.6589 13.3683L23.5982 13.3157L23.5375 13.264L23.4759 13.2127L23.414 13.1622L23.3517 13.1124L23.2888 13.063L23.2256 13.0146L23.1621 12.9669L23.0978 12.9196L23.0331 12.873L22.9684 12.8274L22.9029 12.7822L22.8374 12.738L22.7713 12.6942L22.7048 12.6512L22.6378 12.6088L22.5708 12.5674L22.503 12.5264L22.4352 12.4863L22.3668 12.4468L22.2984 12.4082L22.2295 12.3702L22.1602 12.3329L22.0906 12.2963L22.0209 12.2606L21.9507 12.2254L21.8802 12.191L21.8096 12.1574L21.7388 12.1246L21.6673 12.0923L21.5961 12.061L21.5243 12.0304L21.4523 12.0004L21.3801 11.9712L21.3078 11.9429L21.2352 11.9152L21.1622 11.8882L21.0893 11.8621L21.0161 11.8366L20.9426 11.812L20.8692 11.7881L20.7955 11.765L20.7217 11.7426L20.6474 11.7209L20.5733 11.7001L20.4991 11.6799L20.4247 11.6606L20.3501 11.642L20.2753 11.6241L20.2006 11.607L20.1259 11.5908L20.0509 11.5752L19.9757 11.5603L19.9009 11.5464L19.8256 11.5331L19.7505 11.5206L19.675 11.5088L19.6 11.4978L19.5244 11.4875L19.4492 11.4782L19.3739 11.4694L19.2985 11.4614L19.2232 11.4543L19.1477 11.4478L19.0726 11.4421L18.9971 11.4372L18.9219 11.433L18.8468 11.4296L18.7713 11.4269L18.6963 11.425L18.6213 11.4238L18.5463 11.4234L18.4951 11.4236L18.5339 14.727L18.5571 14.7271L18.6002 14.7277L18.6433 14.7288L18.6866 14.7302L18.7298 14.7322L18.7732 14.7346L18.8165 14.7374L18.8599 14.7407L18.9034 14.7445L18.9469 14.7486L18.9904 14.7533L19.0339 14.7584L19.0775 14.764L19.121 14.77L19.1646 14.7765L19.2082 14.7835L19.2518 14.7909L19.2953 14.7988L19.3389 14.8072L19.3824 14.8159L19.4259 14.8253L19.4694 14.835L19.5129 14.8452L19.5562 14.8559L19.5997 14.867L19.643 14.8787L19.6862 14.8907L19.7295 14.9033L19.7726 14.9163L19.8157 14.9298L19.8587 14.9438L19.9017 14.9582L19.9445 14.9731L19.9873 14.9884L20.03 15.0042L20.0725 15.0205L20.115 15.0372L20.1574 15.0545L20.1996 15.0721L20.2417 15.0903L20.2837 15.1089L20.3256 15.128L20.3673 15.1475L20.4089 15.1675L20.4504 15.1879L20.4917 15.2088L20.5328 15.2303L20.5738 15.252L20.6146 15.2744L20.6552 15.2971L20.6957 15.3203L20.736 15.3439L20.776 15.368L20.816 15.3926L20.8556 15.4176L20.8952 15.443L20.9344 15.4689L20.9735 15.4952L21.0124 15.5221L21.051 15.5493L21.0894 15.5769L21.1276 15.605L21.1656 15.6335L21.2033 15.6625L21.2407 15.6919L21.278 15.7217L21.3149 15.752L21.3515 15.7826L21.388 15.8138L21.4241 15.8453L21.46 15.8772L21.4956 15.9096L21.5308 15.9424L21.5658 15.9756L21.6005 16.0092L21.635 16.0432L21.669 16.0776L21.7028 16.1124L21.7363 16.1476L21.7694 16.1832L21.8022 16.2193L21.8347 16.2557L21.8669 16.2924L21.8987 16.3296L21.9301 16.3671L21.9613 16.405L21.9921 16.4433L22.0225 16.482L22.0525 16.521L22.0822 16.5605L22.1116 16.6002L22.1405 16.6404L22.169 16.6808L22.1972 16.7217L22.225 16.7629L22.2523 16.8045L22.2793 16.8463L22.306 16.8885L22.3321 16.9311L22.3579 16.9739L22.3833 17.0172L22.4082 17.0607L22.4328 17.1045L22.4568 17.1487L22.4806 17.1931L22.5038 17.2379L22.5266 17.283L22.549 17.3283L22.5709 17.374L22.5923 17.42L22.6133 17.4662L22.6339 17.5128L22.6541 17.5596L22.6737 17.6067L22.6929 17.654L22.7116 17.7016L22.7298 17.7495L22.7476 17.7976L22.7649 17.846L22.7816 17.8946L22.798 17.9434L22.8138 17.9925L22.8291 18.0419L22.8439 18.0914L22.8582 18.1412L22.872 18.1912L22.8854 18.2414L22.8983 18.2918L22.9105 18.3424L22.9223 18.3933L22.9336 18.4442L22.9444 18.4955L22.9546 18.5469L22.9643 18.5983L22.9735 18.6501L22.9822 18.702L22.9903 18.754L22.9979 18.8062L23.0049 18.8585L23.0114 18.911L23.0174 18.9637L23.0229 19.0165L23.0277 19.0693L23.0321 19.1223L23.0359 19.1755L23.0391 19.2287L23.0418 19.2821L23.0439 19.3356L23.0455 19.3891L23.0465 19.4428L23.047 19.4965L23.0469 19.5502L23.0462 19.6041L23.045 19.6581L23.0432 19.7121L23.0409 19.7662L23.0379 19.8202L23.0344 19.8744L23.0304 19.9286L23.0257 19.9828L23.0205 20.0371L23.0147 20.0913L23.0083 20.1456L23.0013 20.1999L22.9939 20.2542L22.9858 20.3085L22.9771 20.3627L22.9678 20.417L22.958 20.4712L22.9476 20.5255L22.9366 20.5797L22.925 20.6338L22.9129 20.6879L22.9002 20.742L22.8868 20.7959L22.8729 20.8499L22.8585 20.9037L22.8434 20.9576L22.8277 21.0112L22.8115 21.0648L22.7947 21.1184L22.7774 21.1718L22.7594 21.2251L22.7409 21.2783L22.7217 21.3314L22.702 21.3844L22.6818 21.4371L22.6609 21.4899L22.6395 21.5424L22.6175 21.5948L22.5949 21.6471L22.5717 21.6992L22.548 21.7511L22.5237 21.8028L22.4988 21.8544L22.4734 21.9058L22.4474 21.957L22.4208 22.008L22.3936 22.0588L22.3659 22.1093L22.3377 22.1597L22.3089 22.2099L22.2794 22.2598L22.2496 22.3094L22.219 22.359L22.188 22.4081L22.1564 22.457L22.1242 22.5058L22.0915 22.5542L22.0582 22.6024L22.0245 22.6502L21.9901 22.6978L21.9552 22.7452L21.9198 22.7922L21.8839 22.8389L21.8474 22.8854L21.8104 22.9315L21.7729 22.9772L21.7348 23.0227L21.6963 23.0679L21.6571 23.1127L21.6175 23.1571L21.5774 23.2013L21.5368 23.2451L21.4957 23.2885L21.454 23.3316L21.4119 23.3743L21.3692 23.4166L21.3262 23.4586L21.2825 23.5001L21.2384 23.5413L21.1938 23.582L21.1487 23.6225L21.1032 23.6625L21.0572 23.702L21.0108 23.7411L20.9638 23.7799L20.9164 23.8182L20.8685 23.856L20.8202 23.8934L20.7715 23.9305L20.7223 23.967L20.6727 24.0031L20.6226 24.0387L20.5721 24.074L20.5211 24.1086L20.4698 24.1429L20.4181 24.1766L20.3659 24.2099L20.3132 24.2428L20.2603 24.275L20.2069 24.3068L20.1531 24.3381L20.0989 24.3689L20.0443 24.3992L19.9894 24.429L19.9341 24.4583L19.8784 24.4871L19.8223 24.5152L19.766 24.543L19.7092 24.5701L19.652 24.5967L19.5946 24.6228L19.5368 24.6482L19.4787 24.6733L19.4202 24.6977L19.3614 24.7215L19.3023 24.7447L19.2429 24.7675L19.1832 24.7896L19.1232 24.8112L19.0629 24.8322L19.0023 24.8526L18.9414 24.8725L18.8803 24.8916L18.8189 24.9103L18.7571 24.9284L18.6952 24.9458L18.633 24.9627L18.5706 24.9789L18.5079 24.9946L18.4449 25.0095L18.3818 25.024L18.3184 25.0377L18.2548 25.0509L18.191 25.0634L18.127 25.0753L18.0628 25.0866L17.9984 25.0973L17.9338 25.1073L17.8691 25.1166L17.8042 25.1254L17.7391 25.1335L17.6738 25.1409L17.6085 25.1477L17.5429 25.1539L17.4772 25.1593L17.4114 25.1642L17.3454 25.1683L17.2794 25.1719L17.2132 25.1748L17.147 25.177L17.0805 25.1785L17.0141 25.1793L16.9476 25.1796L16.881 25.1792L16.8143 25.178L16.7475 25.1762L16.6807 25.1737L16.6138 25.1706L16.5469 25.1667L16.4799 25.1623L16.413 25.1571L16.346 25.1513L16.279 25.1447L16.212 25.1375L16.145 25.1296L16.078 25.121L16.011 25.1117L15.944 25.1018L15.8771 25.0912L15.8102 25.0799L15.7433 25.0679L15.6766 25.0552L15.6098 25.0419L15.5431 25.0278L15.4765 25.0131L15.41 24.9976L15.3435 24.9815L15.2771 24.9648L15.2108 24.9473L15.1447 24.9291L15.0787 24.9103L15.0128 24.8908L14.947 24.8706L14.8813 24.8496L14.8159 24.8281L14.7505 24.8059L14.6853 24.783L14.6203 24.7593L14.5554 24.735L14.4908 24.7101L14.4263 24.6845L14.362 24.6581L14.2979 24.6312L14.2341 24.6035L14.1705 24.5752L14.107 24.5462L14.0438 24.5165L13.9808 24.4862L13.9181 24.4552L13.8557 24.4235L13.7935 24.3912L13.7316 24.3582L13.6699 24.3246L13.6085 24.2904L13.5475 24.2554L13.4866 24.2198L13.4261 24.1836L13.366 24.1468L13.3061 24.1092L13.2465 24.0711L13.1873 24.0323L13.1284 23.9928L13.0699 23.9528L13.0118 23.9121L12.954 23.8708L12.8965 23.8289L12.8394 23.7863L12.7827 23.7431L12.7264 23.6994L12.6705 23.6549L12.615 23.6099L12.5599 23.5644L12.5052 23.5182L12.4509 23.4714L12.3971 23.4239L12.3436 23.376L12.2907 23.3274L12.2381 23.2782L12.186 23.2285L12.1344 23.1782L12.0832 23.1274L12.0326 23.0759L11.9824 23.024L11.9326 22.9714L11.8834 22.9184L11.8347 22.8646L11.7865 22.8105L11.7387 22.7558L11.6916 22.7005L11.6448 22.6447L11.5986 22.5884L11.553 22.5315L11.508 22.4742L11.4634 22.4164L11.4194 22.358L11.376 22.2991L11.3332 22.2398L11.2909 22.1799L11.2491 22.1196L11.2079 22.0588L11.1674 21.9975L11.1274 21.9357L11.0881 21.8735L11.0493 21.8109L11.0111 21.7478L10.9735 21.6842L10.9366 21.6202L10.9003 21.5557L10.8646 21.4909L10.8296 21.4256L10.7952 21.3599L10.7614 21.2937L10.7282 21.2272L10.6957 21.1604L10.6639 21.093L10.6328 21.0254L10.6023 20.9573L10.5725 20.8889L10.5433 20.82L10.5148 20.7509L10.4871 20.6813L10.46 20.6115L10.4336 20.5412L10.4079 20.4707L10.3829 20.3998L10.3586 20.3287L10.335 20.2572L10.3122 20.1854L10.29 20.1133L10.2686 20.0409L10.2478 19.9682L10.2278 19.8952L10.2086 19.822L10.1901 19.7485L10.1723 19.6747L10.1553 19.6008L10.139 19.5265L10.1234 19.452L10.1087 19.3773L10.0946 19.3024L10.0813 19.2273L10.0688 19.1519L10.0571 19.0764L10.0461 19.0006L10.0358 18.9248L10.0264 18.8486L10.0178 18.7724L10.0099 18.6959L10.0027 18.6194L9.99639 18.5427L9.99084 18.4658L9.98606 18.3888L9.98207 18.3117L9.97885 18.2346L9.97642 18.1572L9.97486 18.0798L9.97408 18.0023L9.97399 17.9247L9.97477 17.847L9.97642 17.7693L9.97877 17.6915L9.98198 17.6137L9.98597 17.5358L9.99075 17.4579L9.99631 17.3799L10.0027 17.302L10.0099 17.224L10.0179 17.1461L10.0268 17.0681L10.0364 16.9901L10.0468 16.9123L10.0581 16.8344L10.0702 16.7565L10.0831 16.6787L10.0968 16.6009L10.1113 16.5232L10.1267 16.4456L10.1428 16.3681L10.1597 16.2907L10.1775 16.2133L10.196 16.1361L10.2154 16.059L10.2356 15.982L10.2567 15.9051L10.2785 15.8284L10.301 15.7518L10.3245 15.6754L10.3487 15.5991L10.3737 15.5229L10.3996 15.4471L10.4263 15.3713L10.4537 15.2958L10.4819 15.2205L10.511 15.1454L10.5409 15.0705L10.5715 14.9958L10.603 14.9214L10.6352 14.8472L10.6683 14.7732L10.7021 14.6996L10.7367 14.6261L10.7721 14.5531L10.8083 14.4802L10.8452 14.4077L10.883 14.3355L10.9214 14.2636L10.9608 14.192L11.0008 14.1207L11.0416 14.0497L11.0832 13.9792L11.1256 13.9089L11.1687 13.839L11.2126 13.7695L11.2573 13.7003L11.3026 13.6315L11.3487 13.5632L11.3956 13.4952L11.4432 13.4277L11.4916 13.3605L11.5406 13.2938L11.5904 13.2275L11.6409 13.1617L11.6922 13.0962L11.7442 13.0313L11.7969 12.9667L11.8502 12.9028L11.9043 12.8391L11.9591 12.776L12.0146 12.7135L12.0708 12.6514L12.1277 12.5898L12.1852 12.5288L12.2435 12.4682L12.3024 12.4082L12.362 12.3487L12.4222 12.2897L12.4831 12.2314L12.5447 12.1735L12.6069 12.1162L12.6697 12.0595L12.7331 12.0033L12.7973 11.9479L12.862 11.8928L12.9274 11.8385L12.9933 11.7848L13.0599 11.7316L13.1271 11.6791L13.1949 11.6272L13.2632 11.5759L13.3322 11.5252L13.4017 11.4753L13.4718 11.4259L13.5425 11.3772L13.6138 11.3292L13.6855 11.2818L13.7579 11.2352L13.8308 11.1891L13.9042 11.1438L13.9782 11.0992L14.0526 11.0553L14.1276 11.012L14.2031 10.9695L14.2791 10.9277L14.3556 10.8867L14.4325 10.8463L14.51 10.8067L14.5879 10.7678L14.6663 10.7297L14.7452 10.6923L14.8245 10.6557L14.9042 10.6198L14.9843 10.5847L15.065 10.5503L15.146 10.5167L15.2274 10.484L15.3093 10.452L15.3915 10.4207L15.4741 10.3903L15.5572 10.3607L15.6406 10.3318L15.7243 10.3038L15.8085 10.2766L15.8929 10.2502L15.9777 10.2246L16.0628 10.1999L16.1483 10.176L16.2341 10.1529L16.3202 10.1306L16.4066 10.1091L16.4932 10.0886L16.5802 10.0689L16.6674 10.05L16.755 10.032L16.8427 10.0148L16.8867 10.0066ZM17.9652 16.3594L16.9643 16.6003L16.9055 11.6045L16.8583 11.6152L16.7873 11.6321L16.7163 11.6497L16.6459 11.6679L16.5756 11.6868L16.5056 11.7064L16.4357 11.7268L16.3665 11.7476L16.2971 11.7693L16.2286 11.7914L16.1599 11.8144L16.0917 11.838L16.0238 11.8623L15.9561 11.8871L15.8891 11.9126L15.8221 11.9388L15.7555 11.9656L15.6893 11.993L15.6232 12.0212L15.558 12.0497L15.4928 12.0791L15.4282 12.109L15.3637 12.1396L15.2998 12.1706L15.236 12.2024L15.173 12.2347L15.1102 12.2676L15.0478 12.3011L14.9859 12.3351L14.9243 12.3698L14.8632 12.4051L14.8028 12.4408L14.7422 12.4772L14.6825 12.5141L14.6233 12.5515L14.5644 12.5895L14.5058 12.6281L14.4479 12.6672L14.3904 12.7068L14.3334 12.7469L14.2769 12.7875L14.2207 12.8287L14.1652 12.8705L14.1101 12.9126L14.0555 12.9553L14.0015 12.9984L13.948 13.042L13.8948 13.0862L13.8422 13.1309L13.7903 13.1759L13.7388 13.2215L13.6878 13.2674L13.6373 13.3139L13.5874 13.3609L13.5381 13.4082L13.4893 13.4559L13.4409 13.5042L13.3932 13.5528L13.3461 13.6019L13.2995 13.6512L13.2533 13.7013L13.2079 13.7514L13.163 13.8021L13.1186 13.8532L13.0749 13.9045L13.0317 13.9563L12.9892 14.0083L12.9471 14.061L12.9058 14.1137L12.8649 14.167L12.8247 14.2207L12.7851 14.2745L12.746 14.3287L12.7076 14.3832L12.6697 14.4381L12.6325 14.4932L12.5959 14.5488L12.56 14.6044L12.5246 14.6605L12.4898 14.7169L12.4558 14.7734L12.4222 14.8305L12.3893 14.8874L12.357 14.9449L12.3253 15.0026L12.2944 15.0604L12.264 15.1185L12.2343 15.1769L12.2051 15.2356L12.1767 15.2942L12.1489 15.3534L12.1217 15.4125L12.0952 15.4719L12.0692 15.5315L12.044 15.5914L12.0194 15.6512L11.9954 15.7114L11.9721 15.7717L11.9494 15.8322L11.9274 15.8926L11.9061 15.9534L11.8853 16.0143L11.8652 16.0753L11.8458 16.1364L11.827 16.1977L11.8089 16.2591L11.7915 16.3204L11.7747 16.382L11.7584 16.4437L11.743 16.5054L11.7281 16.5672L11.7139 16.629L11.7003 16.691L11.6875 16.753L11.6752 16.815L11.6636 16.877L11.6526 16.9392L11.6424 17.0012L11.6328 17.0634L11.6237 17.1257L11.6154 17.1877L11.6077 17.25L11.6007 17.312L11.5943 17.3743L11.5886 17.4366L11.5834 17.4986L11.579 17.5607L11.5752 17.6228L11.572 17.6848L11.5695 17.7467L11.5675 17.8086L11.5663 17.8706L11.5656 17.9323L11.5657 17.994L11.5663 18.0556L11.5676 18.1172L11.5695 18.1786L11.5721 18.24L11.5752 18.3012L11.579 18.3623L11.5834 18.4233L11.5885 18.4842L11.5941 18.5449L11.6004 18.6056L11.6072 18.6659L11.6147 18.7264L11.6228 18.7864L11.6315 18.8465L11.6408 18.9063L11.6507 18.966L11.6612 19.0256L11.6724 19.0848L11.6841 19.144L11.6963 19.2027L11.7093 19.2615L11.7227 19.32L11.7368 19.3784L11.7514 19.4363L11.7667 19.4943L11.7824 19.5518L11.7987 19.6093L11.8156 19.6663L11.8331 19.7233L11.8512 19.7799L11.8698 19.8362L11.8889 19.8924L11.9087 19.9482L11.9289 20.0037L11.9496 20.0591L11.971 20.1142L11.9929 20.1688L12.0153 20.2233L12.0381 20.2773L12.0617 20.3312L12.0856 20.3848L12.1101 20.438L12.1351 20.4908L12.1606 20.5433L12.1867 20.5958L12.2131 20.6476L12.2401 20.6991L12.2677 20.7504L12.2957 20.8012L12.3242 20.8518L12.3531 20.902L12.3826 20.9517L12.4125 21.0012L12.4428 21.0503L12.4737 21.099L12.505 21.1474L12.5367 21.1953L12.5689 21.243L12.6015 21.29L12.6346 21.3369L12.6681 21.3832L12.702 21.4292L12.7364 21.4749L12.7712 21.52L12.8063 21.5647L12.8419 21.6091L12.878 21.6531L12.9143 21.6965L12.9512 21.7396L12.9884 21.7823L13.0259 21.8245L13.064 21.8663L13.1022 21.9076L13.1409 21.9486L13.18 21.989L13.2194 22.029L13.2592 22.0686L13.2993 22.1077L13.3398 22.1463L13.3806 22.1845L13.4218 22.2222L13.4633 22.2595L13.5051 22.2962L13.5472 22.3325L13.5896 22.3684L13.6323 22.4038L13.6754 22.4387L13.7188 22.4731L13.7623 22.5069L13.8062 22.5403L13.8504 22.5733L13.8949 22.6058L13.9396 22.6377L13.9846 22.6692L14.0299 22.7002L14.0754 22.7307L14.121 22.7606L14.167 22.7901L14.2134 22.8191L14.2597 22.8475L14.3064 22.8755L14.3533 22.903L14.4003 22.9298L14.4476 22.9562L14.4952 22.9822L14.5429 23.0076L14.5908 23.0324L14.6388 23.0568L14.6872 23.0807L14.7355 23.1039L14.7842 23.1268L14.8329 23.1491L14.8817 23.1708L14.9309 23.192L14.9801 23.2128L15.0293 23.233L15.0788 23.2527L15.1284 23.2718L15.1783 23.2904L15.2279 23.3085L15.278 23.3261L15.328 23.3431L15.3781 23.3596L15.4284 23.3756L15.4787 23.3911L15.5291 23.406L15.5796 23.4204L15.6302 23.4342L15.6808 23.4476L15.7314 23.4604L15.7822 23.4727L15.8329 23.4845L15.8837 23.4957L15.9346 23.5064L15.9855 23.5166L16.0364 23.5263L16.0872 23.5354L16.1382 23.5441L16.1892 23.5521L16.2402 23.5597L16.291 23.5667L16.3419 23.5732L16.3928 23.5792L16.4438 23.5847L16.4947 23.5897L16.5456 23.5941L16.5964 23.5981L16.6471 23.6015L16.6979 23.6044L16.7485 23.6067L16.7991 23.6086L16.8498 23.6099L16.9002 23.6108L16.9505 23.6112L17.0009 23.611L17.0511 23.6104L17.1014 23.6092L17.1515 23.6075L17.2013 23.6054L17.2512 23.6027L17.3011 23.5995L17.3506 23.5959L17.4002 23.5917L17.4495 23.5871L17.4989 23.582L17.548 23.5764L17.5969 23.5703L17.6459 23.5637L17.6945 23.5567L17.743 23.5491L17.7915 23.5412L17.8397 23.5327L17.8877 23.5238L17.9357 23.5143L17.9834 23.5044L18.0309 23.4941L18.0781 23.4833L18.1253 23.472L18.1723 23.4603L18.219 23.4482L18.2656 23.4356L18.3119 23.4226L18.3582 23.409L18.404 23.3951L18.4495 23.3808L18.4952 23.3659L18.5404 23.3507L18.5853 23.3351L18.6301 23.319L18.6745 23.3025L18.7189 23.2855L18.7629 23.2682L18.8066 23.2504L18.8501 23.2323L18.8934 23.2137L18.9364 23.1947L18.979 23.1753L19.0215 23.1556L19.0637 23.1354L19.1054 23.1149L19.1471 23.094L19.1883 23.0727L19.2294 23.051L19.2701 23.0289L19.3105 23.0065L19.3505 22.9837L19.3904 22.9605L19.4299 22.937L19.469 22.9131L19.5078 22.8889L19.5463 22.8643L19.5845 22.8394L19.6225 22.8141L19.66 22.7886L19.6973 22.7626L19.7342 22.7363L19.7706 22.7098L19.8069 22.6829L19.8427 22.6557L19.8782 22.6281L19.9134 22.6003L19.9483 22.5721L19.9827 22.5438L20.0168 22.5151L20.0505 22.486L20.0839 22.4567L20.117 22.4271L20.1496 22.3972L20.1819 22.3671L20.2137 22.3367L20.2453 22.306L20.2765 22.275L20.3073 22.2439L20.3377 22.2125L20.3677 22.1807L20.3973 22.1489L20.4267 22.1166L20.4554 22.0843L20.484 22.0516L20.512 22.0187L20.5396 21.9857L20.5671 21.9523L20.5938 21.9188L20.6204 21.8851L20.6465 21.8512L20.6722 21.8171L20.6975 21.7827L20.7223 21.7483L20.7468 21.7135L20.771 21.6786L20.7946 21.6437L20.8179 21.6083L20.8408 21.573L20.8631 21.5374L20.8852 21.5017L20.9068 21.4659L20.928 21.4298L20.9488 21.3937L20.9692 21.3573L20.9891 21.3209L21.0087 21.2843L21.0278 21.2477L21.0464 21.2109L21.0648 21.1739L21.0827 21.1369L21.1001 21.0997L21.1171 21.0625L21.1337 21.0251L21.1499 20.9878L21.1657 20.9501L21.181 20.9126L21.196 20.8747L21.2104 20.8372L21.2246 20.799L21.2381 20.7615L21.2514 20.7233L21.2642 20.6852L21.2766 20.6472L21.2886 20.609L21.3001 20.571L21.3113 20.5325L21.3219 20.4945L21.3323 20.4559L21.3421 20.4179L21.3516 20.3794L21.3606 20.341L21.3692 20.3027L21.3774 20.2646L21.3852 20.2259L21.3926 20.1877L21.3995 20.1491L21.4061 20.1109L21.4122 20.0726L21.418 20.0342L21.4233 19.9958L21.4281 19.9574L21.4326 19.9193L21.4367 19.8812L21.4404 19.8428L21.4437 19.8048L21.4465 19.7666L21.449 19.7285L21.451 19.6906L21.4527 19.6527L21.4539 19.615L21.4548 19.577L21.4553 19.5391L21.4554 19.5016L21.455 19.464L21.4543 19.4266L21.4532 19.3892L21.4517 19.3517L21.4498 19.3148L21.4476 19.2772L21.445 19.2406L21.4419 19.2037L21.4385 19.1666L21.4347 19.13L21.4306 19.0936L21.426 19.0568L21.4212 19.0208L21.4159 18.9844L21.4103 18.9487L21.4042 18.9125L21.3979 18.8766L21.3912 18.8411L21.3842 18.8057L21.3767 18.7701L21.3689 18.7351L21.3608 18.7L21.3523 18.6652L21.3435 18.6306L21.3342 18.5958L21.3249 18.5616L21.315 18.5272L21.3048 18.4933L21.2943 18.4594L21.2834 18.4258L21.2722 18.3923L21.2607 18.3589L21.249 18.326L21.2368 18.2932L21.2243 18.2603L21.2115 18.2279L21.1984 18.1954L21.1851 18.1636L21.1713 18.1315L21.1574 18.0999L21.1431 18.0686L21.1285 18.0373L21.1137 18.0063L21.0985 17.9755L21.083 17.9448L21.0673 17.9146L21.0512 17.8845L21.035 17.8546L21.0184 17.825L21.0015 17.7956L20.9844 17.7664L20.9671 17.7376L20.9494 17.7088L20.9315 17.6805L20.9133 17.6523L20.8949 17.6244L20.8762 17.5967L20.8574 17.5694L20.8382 17.5422L20.8188 17.5153L20.7992 17.4887L20.7793 17.4624L20.7593 17.4363L20.7389 17.4104L20.7184 17.3849L20.6977 17.3596L20.6768 17.3346L20.6556 17.3099L20.6343 17.2855L20.6127 17.2613L20.5909 17.2374L20.5689 17.2137L20.5468 17.1904L20.5243 17.1674L20.5018 17.1446L20.4791 17.1222L20.4562 17.1L20.4332 17.0782L20.4097 17.0565L20.3864 17.0352L20.3628 17.0141L20.3391 16.9935L20.3151 16.973L20.2911 16.953L20.2669 16.9331L20.2425 16.9136L20.2181 16.8943L20.1934 16.8753L20.1686 16.8568L20.1437 16.8384L20.1186 16.8204L20.0935 16.8027L20.0683 16.7852L20.0429 16.7682L20.0174 16.7514L19.9917 16.7348L19.966 16.7186L19.9401 16.7027L19.9142 16.6871L19.8882 16.6719L19.8621 16.6569L19.8358 16.6422L19.8096 16.6279L19.7832 16.6138L19.7568 16.6001L19.7304 16.5867L19.7036 16.5735L19.677 16.5607L19.6503 16.5483L19.6235 16.536L19.5967 16.5241L19.5697 16.5125L19.5429 16.5013L19.5159 16.4903L19.4888 16.4797L19.4618 16.4693L19.4347 16.4593L19.4076 16.4496L19.3804 16.4401L19.3532 16.4309L19.3261 16.4222L19.2988 16.4136L19.2716 16.4054L19.2445 16.3975L19.217 16.3899L19.1899 16.3826L19.1627 16.3756L19.1354 16.3689L19.1081 16.3625L19.0809 16.3564L19.0537 16.3506L19.0265 16.3451L18.9994 16.3398L18.9723 16.3349L18.945 16.3303L18.9181 16.326L18.8908 16.322L18.864 16.3182L18.8369 16.3147L18.81 16.3116L18.7833 16.3087L18.7563 16.3062L18.7296 16.3038L18.7028 16.3018L18.6762 16.3L18.6495 16.2985L18.6229 16.2974L18.5966 16.2965L18.5701 16.2958L18.5438 16.2955L18.5175 16.2954L18.4914 16.2957L18.4652 16.2961L18.4393 16.2968L18.4133 16.2978L18.3876 16.2991L18.3617 16.3006L18.3362 16.3024L18.3107 16.3044L18.2852 16.3068L18.2599 16.3093L18.2346 16.3121L18.2096 16.3152L18.1846 16.3185L18.1597 16.3221L18.1349 16.3259L18.1103 16.33L18.0857 16.3342L18.0615 16.3388L18.0371 16.3436L18.0131 16.3486L17.989 16.3538L17.9652 16.3594Z" fill="#FAFAF1"/>
</svg>
